<?xml version="1.0" standalone="no"?>
<!DOCTYPE svg PUBLIC "-//W3C//DTD SVG 20010904//EN"
 "http://www.w3.org/TR/2001/REC-SVG-20010904/DTD/svg10.dtd">
<svg version="1.0" xmlns="http://www.w3.org/2000/svg"
 width="1125.000000pt" height="1125.000000pt" viewBox="0 0 1125.000000 1125.000000"
 preserveAspectRatio="xMidYMid meet">
<metadata>
Created by potrace 1.14, written by Peter Selinger 2001-2017
</metadata>
<g transform="translate(0.000000,1125.000000) scale(0.100000,-0.100000)"
fill="#000000" stroke="none">
<path d="M1113 7698 c3 -3805 -1 -3502 62 -3864 196 -1127 836 -2148 1765
-2820 615 -444 1308 -716 2065 -809 415 -51 889 -38 1305 36 768 136 1498 481
2099 992 133 113 401 382 505 507 601 719 950 1559 1031 2480 13 153 15 599
15 3558 l0 3382 -4425 0 -4425 0 3 -3462z m8683 52 c1 -1785 -2 -3312 -7
-3395 -49 -831 -336 -1622 -827 -2285 -712 -961 -1762 -1566 -2962 -1707 -217
-25 -723 -25 -930 0 -538 66 -976 195 -1431 422 -1380 688 -2271 2043 -2359
3589 -11 199 -15 6608 -3 6619 3 4 1921 6 4262 5 l4256 -3 1 -3245z"/>
<path d="M2210 8865 l0 -1024 123 83 c865 588 2131 882 3122 724 1002 -159
1984 -802 2589 -1695 366 -541 569 -1099 630 -1728 12 -122 14 175 15 2263 l1
2402 -3240 0 -3240 0 0 -1025z"/>
<path d="M4620 7494 c-350 -36 -571 -95 -835 -223 -684 -333 -1179 -992 -1344
-1786 -70 -335 -70 -759 -1 -1130 190 -1017 851 -1906 1745 -2345 427 -210
808 -300 1271 -300 756 0 1531 290 2124 795 120 102 331 321 428 443 369 464
588 1008 657 1632 13 117 20 349 8 280 -2 -14 -15 -70 -29 -125 -84 -331 -254
-623 -469 -807 -260 -222 -562 -332 -945 -345 -142 -5 -196 -2 -279 11 -623
105 -1013 650 -988 1381 10 288 87 524 253 778 80 124 252 299 368 377 93 62
235 131 323 157 35 10 63 22 63 27 0 13 -133 176 -244 299 -452 500 -1014 797
-1641 867 -101 11 -401 20 -465 14z"/>
</g>
</svg>
